Coordinates
version=1
nRows=14
nColumns=36
inDegrees=yes

Units are S.I. units (second, meters, Newtons, ...)
If the header above contains a line with 'inDegrees', this indicates whether rotational values are in degrees (yes) or radians (no).

endheader
time	pelvis_tilt	pelvis_list	pelvis_rotation	pelvis_tx	pelvis_ty	pelvis_tz	hip_flexion_r	hip_adduction_r	hip_rotation_r	knee_angle_r	knee_angle_r_beta	ankle_angle_r	subtalar_angle_r	mtp_angle_r	hip_flexion_l	hip_adduction_l	hip_rotation_l	knee_angle_l	knee_angle_l_beta	ankle_angle_l	subtalar_angle_l	mtp_angle_l	lumbar_extension	lumbar_bending	lumbar_rotation	arm_flex_r	arm_add_r	arm_rot_r	elbow_flex_r	pro_sup_r	arm_flex_l	arm_add_l	arm_rot_l	elbow_flex_l	pro_sup_l
      5.90000000	     -2.84826929	      1.45411842	      5.00087235	     -0.20127902	      0.90894123	      0.12446461	      8.11645148	     -6.32442053	     -9.31819848	      1.11283702	      0.01942267	     -0.06397643	     -5.34796664	     -7.49999987	     10.12965160	     -5.92903335	     -1.63690427	      3.24489081	      0.05663403	      2.20372818	      4.60923170	     -7.49999987	      1.11172867	      1.26826232	      3.18695664	     70.82751223	      8.47917270	     58.98273119	    131.35362815	     99.58937644	     87.00577393	     16.68215740	     69.44281953	    119.93841869	     80.17676534
      5.91666670	     -3.06880627	      1.38244586	      5.01035219	     -0.20547437	      0.91099452	      0.12585157	      8.83702395	     -6.28965095	     -9.35725271	      1.57260572	      0.02744715	     -0.26631920	     -5.55747350	     -7.49999987	     11.20657465	     -6.04263562	     -1.63698846	      4.26434610	      0.07442688	      2.38417544	      4.48982712	     -7.49999987	      0.49427774	      1.33373169	      2.84361519	     71.39723720	      8.90749815	     58.91008376	    133.22589169	     99.29603393	     87.36797889	     15.64419755	     69.49062964	    119.59516330	     81.26925297
      5.93333330	     -3.25561228	      1.34068032	      5.07499560	     -0.21057249	      0.90497205	      0.12497242	      9.81643426	     -6.35730480	     -9.27716308	      2.38485520	      0.04162358	     -0.16892715	     -6.02664098	     -7.49999987	     12.50954192	     -6.10450551	     -1.59576580	      5.65921617	      0.09877196	      2.79596387	      4.02269418	     -7.49999987	     -0.41214206	      1.42676313	      2.83677186	     72.48400565	      9.08771917	     58.45889169	    133.68634252	     99.27592398	     88.20623484	     14.81361444	     68.94431510	    119.53393074	     81.25293339
      5.95000000	     -3.89292567	      1.25053689	      5.15451574	     -0.21202940	      0.90535256	      0.12429473	     11.29505588	     -6.45337916	     -9.03184047	      3.40364211	      0.05940476	     -0.33394978	     -6.98517225	     -7.49999987	     14.28479452	     -6.17818695	     -1.36181010	      7.13036484	      0.12444834	      3.09957445	      3.61579447	     -7.49999987	     -1.05126384	      1.50784026	      2.94328397	     73.30009260	      8.64121982	     58.55446388	    132.13445700	     99.32665998	     88.91730367	     14.23129509	     69.07549079	    119.65729519	     78.79140900
      5.96666670	     -4.37040474	      1.15967227	      5.16182397	     -0.22045404	      0.89798026	      0.12609240	     13.01260369	     -6.57442363	     -8.87450728	      4.90945430	      0.08568614	     -0.01885017	     -7.60956829	     -7.49999987	     16.02059901	     -6.30992086	     -1.37138489	      8.60191997	      0.15013183	      3.73758956	      3.16634181	     -7.49999987	     -1.83131941	      1.61848320	      3.07040129	     74.68386800	      9.14983311	     59.01809171	    134.14718206	     99.35980065	     89.74270423	     13.46892396	     68.81954337	    119.28947336	     78.96629753
      5.98333330	     -4.62601030	      1.09500652	      5.12880164	     -0.22439814	      0.90145764	      0.12700613	     14.55849446	     -6.67774661	     -9.01185935	      6.43182028	      0.11225644	     -0.00838139	     -8.19381808	     -7.49999987	     17.48060936	     -6.44022462	     -1.39664348	     10.08914500	      0.17608880	      4.10498674	      2.94223527	     -7.49999987	     -3.15598447	      1.64880438	      3.14330299	     75.81783123	      9.11976496	     59.19073298	    134.08295935	     99.40789048	     90.42395133	     12.65481953	     68.44517934	    118.31147735	     78.91771149
      6.00000000	     -5.33519572	      0.94268255	      4.89008005	     -0.22867014	      0.90174507	      0.12756868	     16.75366411	     -6.67581594	     -8.78759072	      8.10770832	      0.14150620	      0.00327481	     -8.70522599	     -7.49999987	     19.45214517	     -6.71951127	     -1.49965546	     11.75989022	      0.20524880	      4.46730370	      2.79121174	     -7.49999987	     -3.85261857	      1.68728049	      3.39314447	     76.31047319	      8.44144509	     59.86379090	    131.00062874	     95.30277771	     90.78418182	     12.27728831	     68.83566531	    117.91686609	     75.41732266
      6.01666670	     -5.83605982	      0.83314210	      4.80661828	     -0.23286462	      0.89751474	      0.12648884	     18.91346172	     -6.82643974	     -8.70458974	     10.42466866	      0.18194479	      0.12958702	     -9.32907233	     -7.49999987	     21.31036025	     -6.91636012	     -1.71348513	     13.71715207	      0.23940947	      5.09853730	      2.52112707	     -7.49999987	     -4.92413980	      1.90244092	      3.29445348	     76.82596391	      8.13607431	     59.57101323	    126.51821374	     98.08461565	     91.26302340	     11.41094504	     68.56817533	    117.75904049	     74.05928279
      6.03333330	     -6.23755529	      0.86129808	      4.63223269	     -0.23507220	      0.89952228	      0.12614472	     20.72707365	     -7.12240821	     -8.71847556	     12.46123351	      0.21748955	      0.71613062	     -9.15767241	     -7.49999987	     22.89606787	     -7.01461203	     -2.02706011	     15.55071595	      0.27141119	      5.64849896	      2.51784894	     -7.49999987	     -6.14003673	      1.93298209	      3.38368088	     77.04691702	      7.90656307	     58.86286078	    122.23642445	     95.40446643	     91.68647042	     11.32024423	     68.84975803	    117.82146474	     72.88303017
      6.05000000	     -6.51456144	      0.90360084	      4.13899601	     -0.24010125	      0.90027194	      0.12539848	     22.45712351	     -7.39670815	     -8.64189749	     14.49590729	      0.25300131	      1.17174835	     -8.57108025	     -7.49999987	     24.23215770	     -7.18167526	     -2.56193893	     17.31022449	      0.30212041	      6.06493168	      2.48438870	     -7.49999987	     -7.57998713	      1.90514656	      3.07308270	     77.17391444	      7.84699066	     57.97444275	    117.95100193	     95.27987925	     92.26689719	     10.92527387	     69.60314917	    117.77256281	     71.16171869
      6.06666670	     -6.84001919	      0.88193982	      3.88934228	     -0.24084898	      0.89437238	      0.12521228	     24.17117892	     -7.69558514	     -8.65137465	     16.58633255	      0.28948611	      1.72039998	     -8.29570711	     -7.49999987	     25.58486939	     -7.36186648	     -3.06181954	     19.14757526	      0.33418823	      6.89321594	      2.47111571	     -7.49999987	     -8.78917319	      1.83606440	      2.68696363	     77.10612373	      8.17258791	     57.13233581	    115.97929349	     95.04028080	     92.84135764	     10.76284904	     70.26672778	    117.92099006	     71.12763176
      6.08333330	     -7.15287736	      0.86395873	      3.74468244	     -0.24197371	      0.88954392	      0.12451654	     25.73473901	     -8.07544476	     -8.98699207	     18.54227219	      0.32362370	      2.19222234	     -8.14627735	     -7.49999987	     26.88653016	     -7.54541632	     -3.58241058	     21.03122100	      0.36706405	      7.95376532	      2.67327831	     -7.49999987	    -10.02334411	      1.82102665	      2.77397422	     77.28698682	      8.12688095	     56.33531843	    115.09378910	     93.35607763	     93.67683243	     11.43203209	     70.92766019	    118.39592753	     70.71280739
      6.10000000	     -7.34994145	      0.75004548	      3.61721157	     -0.24173930	      0.87960667	      0.12491909	     27.27278908	     -8.34043608	     -9.22295953	     20.74631218	      0.36209146	      3.15325594	     -8.32915175	     -7.49999987	     28.26595209	     -7.87181703	     -3.83515261	     23.32862699	      0.40716135	      9.52666761	      2.47796437	     -7.49999987	    -11.20164513	      1.81393692	      3.11757059	     77.88638109	      8.20237930	     55.71944031	    115.30495055	     93.31208269	     94.29337545	     12.32515470	     71.12892435	    119.09031954	     70.78457236
      6.11666670	     -7.80033761	      0.65429595	      3.46208434	     -0.24617503	      0.87256957	      0.12560184	     29.23432879	     -8.61031887	     -9.35784604	     23.11792218	      0.40348386	      4.36038921	     -8.34762662	     -7.49999987	     30.12693027	     -8.29056416	     -4.22604218	     25.77729211	      0.44989862	     11.13485392	      2.72065105	     -7.49999987	    -11.95812347	      1.78021012	      3.31442409	     78.47800454	      8.94220362	     56.63527241	    118.56766595	     92.42783377	     95.03100623	     12.83038026	     71.64758170	    120.22081320	     70.72450441
